<?xml version="1.0" encoding="UTF-8"?>
<svg id="Layer_1" data-name="Layer 1" xmlns="http://www.w3.org/2000/svg" viewBox="0 0 281.58 1059.53">
  <defs>
    <style>
      .cls-1 {
        fill: #a48908;
      }

      .cls-2 {
        fill: #f7931e;
      }
    </style>
  </defs>
  <path class="cls-1" d="M176.78,763.19c11.13-10.36,78.46,73.59,84.36,84.49,55.76,103.03-7.69,220.04-127.8,211.39-148.12-10.67-159.7-189.23-98.55-293,56.65-96.13,253.09-195.81,174.87-328.09-2.62-4.43-25.27-28.3-11.45-26.28,13.09,1.91,64.13,63.62,70.69,78.47,77.26,174.77-258.32,279.37-191.12,451.71,27.57,70.71,113.56,80.12,147.07,9.12,20.77-44.01,7.34-97.09-15.19-137.57-2.96-5.33-35.92-47.42-32.89-50.23Z"/>
  <path class="cls-2" d="M80.75,639.73c-13.51,10.98-66.11-62.63-70.65-75.91C-50.83,385.65,286.51,283.75,200.28,109.63c-29-58.56-103.46-67.31-139.1-9.79-29.58,47.74-11.74,109.1,13.05,154.7,4.51,8.3,20.5,26.77,22.84,32.03,7.19,16.17-32-18.24-34.35-20.52C-98.22,109.72,90.54-79.79,228.22,35.4c68.93,57.67,62.22,177.94,22.98,251.03C201.9,378.28,5.56,485.54,60.65,607.57c2.38,5.27,21.58,30.97,20.11,32.16Z"/>
</svg>