<?xml version="1.0" encoding="UTF-8"?>
<svg id="Layer_1" data-name="Layer 1" xmlns="http://www.w3.org/2000/svg" viewBox="0 0 968.39 1130.18">
  <defs>
    <style>
      .cls-1 {
        fill: #09354e;
      }

      .cls-2 {
        fill: #e7c900;
        opacity: .5;
      }

      .cls-3 {
        fill: #0d4b6f;
      }

      .cls-4 {
        fill: #0e405e;
      }
    </style>
  </defs>
  <path class="cls-2" d="M781.8,47.31C539.06-129.84,212.84,245.64,190.83,271.61,124.75,349.59-27.73,529.52,4.39,743.9c33,220.31,236.84,316.22,283.47,338.16,154.96,72.91,408.23,86.34,562.19-129.08,189.55-265.21,140.17-753.56-68.25-905.67Z"/>
  <path class="cls-2" d="M319.03,94.32c70.38-1.14,385.46-42.76,565.61,321.96,29.45,59.63,108.32,285.06,73.25,399.42-71.59,233.42-360.56,336.52-642.11,160.03C47.59,807.6-72.63,373.09,49.43,215.85c52.86-68.09,142.99-119.48,269.6-121.53Z"/>
  <g>
    <path class="cls-4" d="M349.93,619.33c-17.58-47.43-35.32-88.51-37.99-140.51-4.16-81.06,33.44-182.34,93.46-237.52,29.07-26.72,65.42-38.56,95.54-63.46,7.1-5.87,24.18-24.35,31.25-26.74s10.72,2.01,11.65,8.81c2.14,15.72-5.96,46.03,11.39,54.62,6.37,3.15,18.91,4.11,23.72,9.27,5.45,5.85,5.29,21.74,5.97,29.53,12.4.38,25.15-1.82,36.68,3.82,14.03,6.86,21.02,23.08,30.35,34.65,17.79,22.08,43.93,33.89,65.44,51.56,32.58,26.75,69.6,76.57,44.73,119.68-11.13,19.3-44.47,21.17-62.89,12.48-4.41-2.08-8.25-6.67-11.75-8.25-9.6-4.32-58.29-20.55-67.09-20.93-31.72-1.36-67.52,35.14-99.46,12,14.45,41.32,50.07,69.61,76.96,102.53,32.86,40.21,50.45,77.65,61.03,128.47l1.14,4.86-283.14.14c.07-8.4-3.87-16.44-6.33-24.17-5.17-16.29-18.2-51.4-20.67-50.83ZM449.43,238.33v1c.65-.33.65-.67,0-1ZM446.93,240.33c-30.99,20.44-58.17,51.8-76.17,84.33-33.89,61.25-38.76,127.58-19.83,194.67.65,2.31,1.1,5.02,2.5,7.01,1-1.88-.13-4.91-.5-7.01-6.72-38.24-8.42-73.53-1.52-112.02,11.72-65.42,47.77-122.04,95.52-166.98.22.22,1.02-.15,1-.5-.07-1.09-1.47.03-1,.5ZM658.93,323.33l-1.52-1.99h-1.48s0,1.98,0,1.98h2.99c-.22.23.15,1.03.5,1.01,1.09-.07-.03-1.47-.5-1ZM758.94,434.33c3.45-2.29.5-12.25-.5-16.01-9.04-33.92-50.65-66.8-79.59-84.41-2.25-1.37-16.86-10.47-17.91-9.58-1.77,1.5,1.37,2.2,1.89,2.58,19.43,14.31,39.42,27.33,57.12,43.91,17.34,16.24,37.61,38.77,39,63.51Z"/>
    <path class="cls-3" d="M687.93,715.33c1.7.66,5.86,6.11,8.99,10.47,2.49,3.47,3.86,7.62,3.92,11.89.53,41.99,3.94,79.65,2.14,122.19-.09,2.24-.28,4.35-1.05,6.45-60.32-.01-120.68.02-181,0v-152c52.32,3.22,109.82-4.29,161.55-.04,2.01.16,3.63.33,5.45,1.04Z"/>
    <path class="cls-1" d="M520.93,866.33c60.32.02,120.68-.01,181,0,.53.64,1.27.74,2,1,22.78,8.05,20.48,32.28,20,52-136.95-1.5-274.04,1.12-411,0-1.04-7.2.31-26.8.74-33.76.14-2.25,11.1-12.96,17.81-15.01,1.49-.45,1.66-2.51,1.45-4.05,0-.07-.01-.13,0-.18,62.59.02,125.36-.02,188,0Z"/>
    <path class="cls-4" d="M312.93,919.33c136.96,1.12,274.05-1.5,411,0,4.32.05,8.68-.03,13,0v20h-444l.03-19.97c.92-.26,15.05.59,19.97-.03Z"/>
    <path class="cls-1" d="M660.08,693.19c14.83-1.88,29.24,4.42,28.86,21.14-.2.03-.61.82-1,1-1.89-.49-3.44-.88-5.45-1.04-51.73-4.25-109.23,3.26-161.55.04l-4.52,1.04c-1.09.33-2.51-1.04-2.98-1.04h-151c-.31,0-1.13.89-2.07.95-2.52.16-5.42-1.88-8.43.05,2.36-2.3,4.33-11.85,5.23-12.78.41-.43,9.11-6.56,9.65-6.8,3.88-1.78,6.68-.74,10.12-2.41h281s0,0,2.14-.14Z"/>
    <path class="cls-4" d="M520.93,714.33v152c-62.64-.02-125.41.02-188,0,.64-4.69,0-5.15,0-8.5v-131.5c0-.09.31-2.06.99-3.5,3.05-6.46,8.82-7.79,16.51-8.03,5-1.06,11.69-.47,12-.47h151c.47,0,1.9,1.37,2.98,1.04l4.52-1.04Z"/>
  </g>
</svg>